<?xml version="1.0" encoding="utf-8"?>
<svg xmlns="http://www.w3.org/2000/svg" xmlns:svg="http://www.w3.org/2000/svg" version="1.1" viewBox="0 0 1400 440">
	<title>The titlepage for the Standard Ebooks edition of Anne of Green Gables, by L. M. Montgomery</title>
	<g aria-label="ANNE">
		<path d="m 596.23684,52.807016 h -16.2807 L 548.79824,130 h 18.90059 l 5.7076,-15.4386 h 29.38012 L 608.49415,130 h 18.90059 z m 0.5614,46.31579 h -17.40351 l 8.60819,-22.45614 h 0.18714 z"/>
		<path d="m 652.90497,82.093566 h 0.18713 L 683.78216,130 h 17.59065 V 52.807016 h -17.59065 v 47.906434 h -0.18713 L 652.90497,52.807016 H 635.31433 V 130 h 17.59064 z"/>
		<path d="m 735.20761,82.093566 h 0.18714 L 766.08481,130 h 17.59064 V 52.807016 h -17.59064 v 47.906434 h -0.18714 L 735.20761,52.807016 H 717.61697 V 130 h 17.59064 z"/>
		<path d="M 844.08334,52.807016 H 799.9196 V 130 h 44.16374 v -15.4386 h -26.5731 V 99.029239 h 25.45029 V 83.590642 H 817.51024 V 68.245613 h 26.5731 z"/>
	</g>
	<g aria-label="OF GREEN GABLES">
		<path d="m 217.31651,191.35672 c 0,22.54971 16.09357,40.04679 38.92398,40.04679 22.17544,0 38.83041,-17.49708 38.83041,-40.04679 0,-22.5497 -17.40351,-39.95321 -38.83041,-39.95321 -21.23977,0 -38.92398,17.40351 -38.92398,39.95321 z m 18.99415,0 c 0,-11.50877 6.36258,-23.01754 19.92983,-23.01754 13.66082,0 19.83626,11.50877 19.83626,23.01754 0,11.50878 -5.80117,23.01755 -19.83626,23.01755 -14.40936,0 -19.92983,-11.50877 -19.92983,-23.01755 z"/>
		<path d="M 352.46417,152.80702 H 307.83259 V 230 h 17.59065 v -30.97076 h 24.98245 v -15.4386 h -24.98245 v -15.34503 h 27.04093 z"/>
		<path d="m 466.21564,186.77193 h -35.64912 v 13.56725 h 17.77778 c 0,9.45029 -8.32749,14.87719 -16.74854,14.87719 -10.8538,0 -19.64912,-10.66666 -19.64912,-23.76608 0,-13.38012 8.79532,-24.14035 19.64912,-24.14035 6.83041,0 12.72515,2.71345 17.21637,9.91813 l 11.50878,-12.63158 c -6.73685,-8.14035 -16.18714,-13.19298 -29.75439,-13.19298 -21.7076,0 -37.61404,17.87134 -37.61404,40.04678 0,22.08187 16.84211,39.95322 37.61404,39.95322 15.15789,0 31.4386,-8.32749 35.64912,-27.88304 z"/>
		<path d="M 478.89984,152.80702 V 230 h 17.59064 V 199.49708 L 520.06943,230 H 542.432 l -26.5731,-31.90643 c 9.4503,-2.99416 15.81287,-10.76024 15.81287,-22.36258 0,-15.15789 -10.8538,-22.92397 -25.16959,-22.92397 z m 17.59064,34.24561 V 166.8421 h 2.05848 c 6.64328,0 14.59649,0.46784 14.59649,10.10527 0,9.63742 -7.95321,10.10526 -14.59649,10.10526 z"/>
		<path d="M 595.13231,152.80702 H 550.96856 V 230 h 44.16375 v -15.4386 h -26.5731 v -15.53216 h 25.45029 v -15.4386 h -25.45029 v -15.34503 h 26.5731 z"/>
		<path d="M 654.40861,152.80702 H 610.24487 V 230 h 44.16374 v -15.4386 h -26.5731 v -15.53216 h 25.4503 v -15.4386 h -25.4503 v -15.34503 h 26.5731 z"/>
		<path d="m 687.11185,182.09357 h 0.18714 L 717.98904,230 h 17.59065 v -77.19298 h -17.59065 v 47.90643 h -0.18713 L 687.11185,152.80702 H 669.52121 V 230 h 17.59064 z"/>
		<path d="m 852.2098,186.77193 h -35.64912 v 13.56725 h 17.77777 c 0,9.45029 -8.32748,14.87719 -16.74853,14.87719 -10.85381,0 -19.64913,-10.66666 -19.64913,-23.76608 0,-13.38012 8.79532,-24.14035 19.64913,-24.14035 6.8304,0 12.72514,2.71345 17.21637,9.91813 l 11.50877,-12.63158 c -6.73684,-8.14035 -16.18713,-13.19298 -29.75438,-13.19298 -21.70761,0 -37.61404,17.87134 -37.61404,40.04678 0,22.08187 16.84211,39.95322 37.61404,39.95322 15.15789,0 31.43859,-8.32749 35.64912,-27.88304 z"/>
		<path d="m 904.09872,152.80702 h -16.2807 L 856.66012,230 h 18.90059 l 5.7076,-15.4386 h 29.38012 L 916.35603,230 h 18.90058 z m 0.5614,46.31579 h -17.40351 l 8.60819,-22.45614 h 0.18714 z"/>
		<path d="M 943.17621,152.80702 V 230 h 29.28655 c 16,0 25.26315,-8.79532 25.26315,-21.52047 0,-12.44444 -6.8304,-17.77778 -16.46783,-19.46199 6.54971,-3.36842 9.63743,-9.45029 9.63743,-16.5614 0,-14.69006 -10.47954,-19.64912 -23.76609,-19.64912 z m 17.59064,30.22222 v -16.65497 h 1.40351 c 7.67251,0 11.69591,2.33918 11.69591,7.85965 0,6.45614 -4.11696,8.79532 -11.69591,8.79532 z m 0,33.40351 v -18.24562 h 5.52047 c 8.32748,0 12.91228,2.52632 12.91228,9.63743 0,6.08187 -4.5848,8.60819 -12.91228,8.60819 z"/>
		<path d="m 1028.084,152.80702 h -17.5906 V 230 h 44.1637 v -15.4386 h -26.5731 z"/>
		<path d="m 1112.4715,152.80702 h -44.1638 V 230 h 44.1638 v -15.4386 h -26.5731 v -15.53216 h 25.4503 v -15.4386 h -25.4503 v -15.34503 h 26.5731 z"/>
		<path d="m 1156.0285,151.40351 c -12.4444,0 -25.1695,9.16959 -25.1695,23.57895 0,8.04678 5.4269,15.25146 14.69,19.83625 9.1696,4.5848 17.4035,7.11111 17.4035,12.72515 0,7.20468 -7.2982,7.57895 -11.1345,7.57895 -8.6082,0 -18.9006,-8.70176 -18.9006,-8.70176 l -8.7953,14.78363 c 0,0 10.9474,10.19883 29.0059,10.19883 15.0643,0 29.0994,-6.45614 29.0994,-24.88889 0,-10.10526 -9.4503,-17.40351 -18.0585,-21.05263 -8.7953,-3.74269 -16.0936,-6.83041 -16.0936,-11.13451 0,-4.21052 3.1813,-6.92397 9.1696,-6.92397 7.9532,0 15.6258,5.33333 15.6258,5.33333 l 7.1111,-14.03509 c 0,0 -9.9182,-7.29824 -23.9533,-7.29824 z"/>
	</g>
	<g aria-label="L. M. Montgomery">
		<path d="M 347.94079,332.10526 H 334.74781 V 390 h 33.12281 v -11.57895 h -19.92983 z"/>
		<path d="m 387.35855,374.98246 c -4.42105,0 -8,3.57894 -8,8.07017 0,4.42105 3.57895,8 8,8 4.49123,0 8.07018,-3.57895 8.07018,-8 0,-4.49123 -3.57895,-8.07017 -8.07018,-8.07017 z"/>
		<path d="m 480.94079,390 h 13.19298 l -5.19298,-57.89474 H 474.9057 l -12.84211,33.40351 -12.8421,-33.40351 H 435.1864 L 429.99342,390 h 13.19298 l 2.73684,-34.31579 h 0.35088 l 11.85965,33.96491 h 7.85965 l 11.85965,-33.96491 h 0.35087 z"/>
		<path d="m 512.41886,374.98246 c -4.42105,0 -8,3.57894 -8,8.07017 0,4.42105 3.57895,8 8,8 4.49123,0 8.07018,-3.57895 8.07018,-8 0,-4.49123 -3.57895,-8.07017 -8.07018,-8.07017 z"/>
		<path d="m 606.00109,390 h 13.19298 l -5.19298,-57.89474 H 599.966 l -12.8421,33.40351 -12.84211,-33.40351 H 560.2467 L 555.05372,390 h 13.19298 l 2.73685,-34.31579 h 0.35087 l 11.85965,33.96491 h 7.85965 l 11.85965,-33.96491 h 0.35088 z"/>
		<path d="m 626.88267,372.03509 c 0,11.08772 8.70176,19.01754 21.68421,19.01754 12.42106,0 21.47369,-7.92982 21.47369,-19.01754 0,-11.22807 -9.54386,-19.08772 -21.47369,-19.08772 -12.14035,0 -21.68421,7.85965 -21.68421,19.08772 z m 13.19299,0 c 0,-4.98246 3.71929,-8.49123 8.42105,-8.49123 4.63158,0 8.35087,3.50877 8.35087,8.49123 0,4.91228 -3.50877,8.42105 -8.35087,8.42105 -5.05263,0 -8.42105,-3.50877 -8.42105,-8.42105 z"/>
		<path d="m 680.66886,390 h 12.42105 v -20.35088 c 0,-3.57894 3.64913,-7.01754 7.36842,-7.01754 4,0 6.45614,3.4386 6.45614,7.01754 V 390 h 12.42106 v -23.7193 c 0,-10.03509 -9.19298,-13.33333 -15.78948,-13.33333 -3.92982,0 -7.50877,2.03509 -10.31579,4.8421 h -0.14035 V 354 h -12.42105 z"/>
		<path d="m 733.68968,354 h -5.19298 v 9.47368 h 5.19298 v 13.82457 c 0,6.38596 2.38597,13.75438 12.2807,13.75438 5.12281,0 9.12281,-2.24561 9.12281,-2.24561 l -3.08772,-10.03509 c 0,0 -1.47368,1.12281 -3.08772,1.12281 -1.96491,0 -2.80702,-1.61404 -2.80702,-4.98246 v -11.4386 h 7.57895 V 354 h -7.57895 v -13.40351 h -12.42105 z"/>
		<path d="m 762.65679,398.84211 c 3.78947,8.77192 12.42105,10.45614 19.92982,10.45614 12.2807,0 21.19298,-6.24562 21.19298,-18.31579 V 354 h -12.42105 v 3.22807 h -0.21053 c -2.94737,-2.73684 -6.80701,-4.2807 -11.57894,-4.2807 -10.52632,0 -17.89474,8.5614 -17.89474,19.08772 0,10.52631 7.36842,19.01754 17.89474,19.01754 4.91228,0 9.1228,-0.70175 11.78947,-3.64912 v 2.66667 c 0,6.38596 -5.33333,8.42105 -8.77193,8.42105 -5.40351,0 -8.42105,-2.45614 -9.75439,-4.63158 z m 12.21052,-26.80702 c 0,-4.98246 3.7193,-8.49123 8.42105,-8.49123 4.63158,0 8.35088,3.50877 8.35088,8.49123 0,4.91228 -3.50877,8.42105 -8.35088,8.42105 -5.05263,0 -8.42105,-3.50877 -8.42105,-8.42105 z"/>
		<path d="m 814.23463,372.03509 c 0,11.08772 8.70176,19.01754 21.68421,19.01754 12.42105,0 21.47369,-7.92982 21.47369,-19.01754 0,-11.22807 -9.54386,-19.08772 -21.47369,-19.08772 -12.14035,0 -21.68421,7.85965 -21.68421,19.08772 z m 13.19298,0 c 0,-4.98246 3.7193,-8.49123 8.42106,-8.49123 4.63158,0 8.35087,3.50877 8.35087,8.49123 0,4.91228 -3.50877,8.42105 -8.35087,8.42105 -5.05263,0 -8.42106,-3.50877 -8.42106,-8.42105 z"/>
		<path d="m 868.02082,390 h 12.42105 v -21.05263 c 0,-2.87719 1.61404,-6.03509 5.75439,-6.03509 4.42105,0 6.31579,3.1579 6.31579,6.73684 V 390 h 12.42105 v -21.47368 c 0.14035,-2.73685 1.82456,-5.61404 5.75439,-5.61404 4.42105,0 6.31579,3.1579 6.31579,6.73684 V 390 h 12.42105 v -23.7193 c 0,-10.03509 -7.4386,-13.33333 -14.03509,-13.33333 -3.92982,0 -8.14035,2.03509 -11.92982,6.59649 -2.52632,-4.84211 -7.78948,-6.59649 -12.56141,-6.59649 -3.92982,0 -7.50877,2.03509 -10.31579,4.8421 h -0.14035 V 354 h -12.42105 z"/>
		<path d="m 978.52085,373.7193 c 0.0702,-0.42105 0.0702,-1.19298 0.0702,-1.68421 0,-12.63158 -8.35088,-19.08772 -19.29825,-19.08772 -10.87719,0 -19.78947,8.5614 -19.78947,19.08772 0,10.45614 8.91228,19.01754 19.78947,19.01754 8,0 14.59649,-2.59649 18.66667,-9.40351 l -8.98246,-4.49123 c -3.01754,3.22808 -4.77193,4 -8.77193,4 -3.15789,0 -7.78947,-1.89473 -7.78947,-7.43859 z m -25.75438,-6.87719 c 0.21052,-3.29825 2.59649,-5.82457 6.87719,-5.82457 3.64912,0 6.24561,2.03509 6.80702,5.82457 z"/>
		<path d="m 989.3147,390 h 12.4211 v -18.94737 c 0,-0.91228 0.9122,-7.29824 7.3684,-7.29824 4.1403,0 6.4561,1.96491 6.4561,1.96491 l 5.193,-10.52632 c 0,0 -3.2281,-2.24561 -7.8596,-2.24561 -7.0878,0 -11.0176,6.24561 -11.0176,6.24561 h -0.1403 V 354 h -12.4211 z"/>
		<path d="m 1056.5636,354 -8.5614,18.45614 L 1037.9671,354 h -14.3158 l 17.0526,30.38596 -12.421,23.85965 h 14.3158 L 1070.8794,354 Z"/>
	</g>
</svg>
